# xmcd
# 
# Track frame offsets:
#     150
#     22955
#     31067
#     49900
#     53027
#     64852
#     70282
#     86910
#     104000
#     106177
#     116665
#     127580
#     138920
#     140825
#     145142
#     146550
#     148380
#     154855
#     158180
#     159995
#     163852
#     167425
#     171895
#     180827
#     187012
#     188090
#     198455
#     209600
#     224925
#     233022
#     238902
#     245222
#     282335
# 
# Disc length: 4026
# 
# Revision: 18
# Processed by: cddbd v1.5.2PL0 Copyright (c) Steve Scherf et al.
# Submitted via: fre:ac v1.0.31
# 
DISCID=fa0fb821
DTITLE=John Williams - Star Wars Episode I: The Phantom Menace - Ultimate Edition [CD2]
DYEAR=2000
DGENRE=Soundtrack
TTITLE0=Anakin Is Free
TTITLE1=Qui-Gon and Darth Maul Meet
TTITLE2=Anakin and Group to Coruscant
TTITLE3=The Queen and Palpatine
TTITLE4=High Council Meeting
TTITLE5=The Senate
TTITLE6=Anakin's Test
TTITLE7=Qui-Gon's Mission - Obi-Wan's Warning
TTITLE8=Nute and Rune Confer with Darth Sidious
TTITLE9=The Queen and Group Land on Naboo
TTITLE10=Jar Jar Leads Group to the Gungans
TTITLE11=War Plans
TTITLE12=Darth Sidious Receives News of the Gungan Army
TTITLE13=The Gungans March
TTITLE14=The Queen and Her Group Sneak Back to the Palace
TTITLE15=The Battle Begins
TTITLE16=The Republic Pilots Take Off into Space
TTITLE17=Activate the Droids
TTITLE18=The Gungans Fight Back
TTITLE19=The Duel Begins
TTITLE20=Anakin Takes Off in Spaceship
TTITLE21=The Duel Continues
TTITLE22=The Battle Rages On
TTITLE23=Qui-Gon, Obi-Wan and Darth Maul Continue Battle
TTITLE24=Qui-Gon, Darth Maul and the Invisible Wall
TTITLE25=The Gungans Retreat and the Queen Surrenders
TTITLE26=The Death of Qui-Gon and the Surrender of the Gungans
TTITLE27=The Tide Turns - The Death of Darth Maul
TTITLE28=The Queen Confronts Nute and Rune
TTITLE29=The Funeral of Qui-Gon
TTITLE30=The Parade
TTITLE31=End Credits
TTITLE32=Duel of the Fates (Dialogue Version)
EXTD=
EXTT0=
EXTT1=
EXTT2=
EXTT3=
EXTT4=
EXTT5=
EXTT6=
EXTT7=
EXTT8=
EXTT9=
EXTT10=
EXTT11=
EXTT12=
EXTT13=
EXTT14=
EXTT15=
EXTT16=
EXTT17=
EXTT18=
EXTT19=
EXTT20=
EXTT21=
EXTT22=
EXTT23=
EXTT24=
EXTT25=
EXTT26=
EXTT27=
EXTT28=
EXTT29=
EXTT30=
EXTT31=
EXTT32=
PLAYORDER=
